<?xml version="1.0" encoding="UTF-8" standalone="no"?>
<!DOCTYPE svg PUBLIC "-//W3C//DTD SVG 1.1//EN" "http://www.w3.org/Graphics/SVG/1.1/DTD/svg11.dtd">
<svg width="100%" height="100%" viewBox="0 0 487 73" version="1.1" xmlns="http://www.w3.org/2000/svg" xmlns:xlink="http://www.w3.org/1999/xlink" xml:space="preserve" xmlns:serif="http://www.serif.com/" style="fill-rule:evenodd;clip-rule:evenodd;stroke-linejoin:round;stroke-miterlimit:2;">
    <g transform="matrix(4.16667,0,0,4.16667,-0.575,-48.5)">
        <path d="M4.837,11.64L9.536,17.455L0.138,17.455L4.837,11.64Z" style="fill:rgb(249,161,44);"/>
    </g>
    <g transform="matrix(4.16667,0,0,4.16667,-0.575,-48.5)">
        <path d="M9.536,17.455L4.837,11.64L14.236,11.64L9.536,17.455Z" style="fill:rgb(238,33,40);"/>
    </g>
    <g transform="matrix(4.16667,0,0,4.16667,-0.575,-0.0458333)">
        <path d="M4.837,11.64L0.138,5.826L9.536,5.826L4.837,11.64Z" style="fill:rgb(65,137,201);"/>
    </g>
    <g transform="matrix(4.16667,0,0,4.16667,-0.575,-0.0458333)">
        <path d="M9.536,5.826L14.236,11.64L4.837,11.64L9.536,5.826Z" style="fill:rgb(241,224,0);"/>
    </g>
    <g transform="matrix(4.16667,0,0,4.16667,-0.575,48.4125)">
        <path d="M9.536,5.826L4.837,0.01L14.236,0.01L9.536,5.826Z" style="fill:rgb(65,182,73);"/>
    </g>
    <g transform="matrix(4.16667,0,0,4.16667,-0.575,48.4125)">
        <path d="M4.837,0.01L9.536,5.826L0.138,5.826L4.837,0.01Z" style="fill:rgb(238,33,40);"/>
    </g>
    <g transform="matrix(4.16667,0,0,4.16667,-0.575,-0.0416667)">
        <path d="M35.805,8.54C35.284,8.124 34.667,7.772 33.954,7.483C33.241,7.195 32.444,6.962 31.564,6.786C31.179,6.723 30.81,6.638 30.458,6.534C30.105,6.43 29.793,6.302 29.521,6.15C29.248,5.998 29.032,5.825 28.872,5.633C28.712,5.44 28.632,5.209 28.632,4.936C28.632,4.632 28.728,4.371 28.92,4.155C29.113,3.939 29.381,3.771 29.725,3.651C30.069,3.53 30.482,3.47 30.963,3.47C31.427,3.47 31.879,3.542 32.32,3.687C32.761,3.83 33.177,4.039 33.57,4.311C33.962,4.584 34.327,4.928 34.663,5.344L37.186,2.918C36.786,2.309 36.301,1.788 35.733,1.355C35.163,0.923 34.483,0.591 33.69,0.358C32.897,0.127 31.948,0.01 30.842,0.01C30.009,0.01 29.208,0.134 28.44,0.383C27.671,0.631 26.994,0.983 26.41,1.44C25.825,1.896 25.36,2.441 25.016,3.074C24.671,3.707 24.499,4.4 24.499,5.152C24.499,5.857 24.611,6.494 24.835,7.062C25.06,7.631 25.4,8.136 25.857,8.576C26.313,9.017 26.886,9.39 27.575,9.694C28.263,9.998 29.072,10.254 30.002,10.462C30.338,10.527 30.666,10.603 30.987,10.691C31.307,10.779 31.612,10.883 31.9,11.003C32.188,11.123 32.436,11.255 32.645,11.4C32.853,11.544 33.017,11.712 33.137,11.904C33.258,12.096 33.317,12.313 33.317,12.553C33.317,12.874 33.222,13.141 33.029,13.358C32.837,13.574 32.565,13.738 32.212,13.851C31.86,13.962 31.467,14.019 31.035,14.019C30.17,14.019 29.333,13.835 28.524,13.466C27.715,13.098 26.91,12.377 26.109,11.303L23.634,14.115C24.178,14.804 24.795,15.4 25.484,15.905C26.173,16.41 26.962,16.794 27.851,17.058C28.74,17.322 29.737,17.455 30.842,17.455C32.124,17.455 33.258,17.242 34.243,16.818C35.228,16.394 36.005,15.777 36.573,14.968C37.142,14.159 37.426,13.17 37.426,12C37.426,11.247 37.286,10.587 37.006,10.018C36.725,9.45 36.325,8.957 35.805,8.54" style="fill:rgb(35,31,32);fill-rule:nonzero;"/>
    </g>
    <g transform="matrix(4.16667,0,0,4.16667,-0.575,0.558333)">
        <path d="M53.357,0.251L39.156,0.251L39.156,3.855L44.154,3.855L44.154,17.07L48.239,17.07L48.239,3.855L53.357,3.855L53.357,0.251Z" style="fill:rgb(35,31,32);fill-rule:nonzero;"/>
    </g>
    <g transform="matrix(4.16667,0,0,4.16667,-0.575,0.558333)">
        <path d="M59.284,10.775L60.109,8.565C60.236,8.164 60.372,7.775 60.517,7.399C60.661,7.023 60.793,6.646 60.913,6.269C61.021,5.935 61.127,5.595 61.235,5.253C61.337,5.587 61.441,5.924 61.55,6.269C61.678,6.678 61.806,7.075 61.935,7.459C62.062,7.843 62.191,8.204 62.319,8.54L63.15,10.775L59.284,10.775ZM59.556,0.251L52.9,17.07L56.937,17.07L58.137,13.851L64.294,13.851L65.49,17.07L69.623,17.07L63.016,0.251L59.556,0.251Z" style="fill:rgb(35,31,32);fill-rule:nonzero;"/>
    </g>
    <g transform="matrix(4.16667,0,0,4.16667,-0.575,0.558333)">
        <path d="M75.606,3.663L78.562,3.663C79.074,3.663 79.511,3.751 79.872,3.927C80.233,4.104 80.507,4.356 80.7,4.684C80.892,5.012 80.989,5.393 80.989,5.825C80.989,6.257 80.905,6.642 80.737,6.978C80.569,7.315 80.327,7.575 80.015,7.759C79.704,7.944 79.339,8.036 78.923,8.036L75.606,8.036L75.606,3.663ZM82.215,10.438C83.08,9.958 83.761,9.297 84.257,8.456C84.752,7.615 85,6.666 85,5.609C85,4.584 84.752,3.667 84.257,2.858C83.761,2.049 83.076,1.412 82.203,0.948C81.329,0.483 80.355,0.251 79.282,0.251L71.714,0.251L71.714,17.07L75.606,17.07L75.606,11.159L77.707,11.159L81.036,17.07L85.698,17.07L81.932,10.583C82.026,10.538 82.121,10.49 82.215,10.438" style="fill:rgb(35,31,32);fill-rule:nonzero;"/>
    </g>
    <g transform="matrix(4.16667,0,0,4.16667,-0.575,0.558333)">
        <path d="M92.546,10.174L99.226,10.174L99.226,6.858L92.546,6.858L92.546,3.735L100.306,3.735L100.306,0.251L88.582,0.251L88.582,17.07L100.546,17.07L100.546,13.586L92.546,13.586L92.546,10.174Z" style="fill:rgb(35,31,32);fill-rule:nonzero;"/>
    </g>
    <g transform="matrix(4.16667,0,0,4.16667,-0.575,0.558333)">
        <path d="M108.844,13.49L116.718,2.942L116.718,0.251L104.031,0.251L104.031,3.999L111.193,3.999L103.406,14.355L103.406,17.07L116.982,17.07L116.982,13.49L108.844,13.49Z" style="fill:rgb(35,31,32);fill-rule:nonzero;"/>
    </g>
</svg>
